Coordinates
version=1
nRows=17
nColumns=40
inDegrees=yes

Units are S.I. units (second, meters, Newtons, ...)
Angles are in degrees.

endheader
time	pelvis_tilt	pelvis_list	pelvis_rotation	pelvis_tx	pelvis_ty	pelvis_tz	hip_flexion_r	hip_adduction_r	hip_rotation_r	knee_angle_r	knee_angle_r_beta	ankle_angle_r	subtalar_angle_r	mtp_angle_r	hip_flexion_l	hip_adduction_l	hip_rotation_l	knee_angle_l	knee_angle_l_beta	ankle_angle_l	subtalar_angle_l	mtp_angle_l	lumbar_extension	lumbar_bending	lumbar_rotation	arm_flex_r	arm_add_r	arm_rot_r	elbow_flex_r	pro_sup_r	wrist_flex_r	wrist_dev_r	arm_flex_l	arm_add_l	arm_rot_l	elbow_flex_l	pro_sup_l	wrist_flex_l	wrist_dev_l
     53.45128571	     -5.68516548	     -1.81317124	     -5.10208819	      0.94457245	      0.91854929	      0.42736987	     31.47837942	     -4.72868645	    -11.54779770	     19.00898211	     19.00898211	      2.84231876	      2.43542154	      7.90480286	      0.37804264	     -2.62775211	    -11.65342172	     11.43856498	     11.43856498	     17.86002697	     -1.75227945	     -7.38507228	    -11.67673025	      2.91945168	      2.05145718	    -11.65798567	    -16.83222036	     -6.07053772	     23.52549193	     47.53900571	      0.00000000	      0.00000000	     24.81045482	    -24.20270944	     -3.68250532	    106.45815461	     47.98404047	      0.00000000	      0.00000000
     53.46257143	     -5.66825766	     -1.76920041	     -4.94999159	      0.94587674	      0.91660698	      0.42948328	     30.98343917	     -4.55372512	    -12.06756095	     18.21713223	     18.21713223	      2.83654161	      2.44687554	      8.14360858	     -0.32893107	     -2.67470555	    -11.52493745	     11.38348796	     11.38348796	     18.43218759	     -1.62218659	     -7.33733945	    -11.54236034	      2.83595884	      2.20965980	    -13.54342142	    -16.87162785	     -6.24047315	     23.31510034	     47.52819531	      0.00000000	      0.00000000	     25.45770947	    -24.18138425	     -3.96237512	    108.42486972	     48.05964375	      0.00000000	      0.00000000
     53.47385714	     -5.66154030	     -1.73230793	     -4.77849350	      0.94724735	      0.91466978	      0.43177613	     30.64858497	     -4.42704866	    -12.42856832	     18.06059789	     18.06059789	      2.80606580	      2.26213338	      7.87331248	     -0.93534627	     -2.76462239	    -11.38659165	     11.50111130	     11.50111130	     19.04374085	     -1.56064888	     -7.15749934	    -11.38103075	      2.76940290	      2.30245942	    -15.34121059	    -16.83334040	     -6.40832110	     23.29381700	     47.51059144	      0.00000000	      0.00000000	     25.93348691	    -24.25571494	     -4.16047038	    110.54933189	     48.13100064	      0.00000000	      0.00000000
     53.48514286	     -5.72918470	     -1.78665308	     -4.58887309	      0.94849863	      0.91285228	      0.43430198	     30.47199094	     -4.25281255	    -12.77322274	     18.33442624	     18.33442624	      2.69860435	      1.95356882	      7.66280899	     -1.43781057	     -2.98774130	    -11.11732873	     11.64639537	     11.64639537	     19.53732974	     -1.57861333	     -7.15891352	    -11.15544981	      2.78921263	      2.21142354	    -16.73856665	    -16.75541538	     -6.46459247	     22.98159400	     47.51027985	      0.00000000	      0.00000000	     26.22121546	    -24.59638792	     -4.44724284	    111.38280314	     48.17164567	      0.00000000	      0.00000000
     53.49642857	     -5.73000615	     -1.85842728	     -4.46864222	      0.94980319	      0.91110358	      0.43716054	     30.18567409	     -3.97258844	    -12.68908342	     18.62583064	     18.62583064	      1.08446880	      0.86098648	      2.68704824	     -1.61859078	     -3.36429959	    -11.17112041	     12.71676085	     12.71676085	     21.31108273	     -1.05543199	     -4.55505818	    -11.20087421	      2.78606753	      2.17181767	    -18.83919503	    -16.65597673	     -7.04493800	     25.45357752	     47.34054891	      0.00000000	      0.00000000	     25.77901072	    -24.71461920	     -5.22351416	    115.08005467	     48.37801352	      0.00000000	      0.00000000
     53.50771429	     -5.76305453	     -2.01013414	     -4.28809860	      0.95089375	      0.90972648	      0.44006833	     30.13930992	     -3.74145632	    -12.65856263	     19.58893596	     19.58893596	      1.04892410	      0.13570687	      1.92087361	     -1.78756973	     -3.78636711	    -10.81636143	     13.55101971	     13.55101971	     21.78682720	     -1.49777928	     -4.47074823	    -11.11500325	      2.85691847	      2.44942942	    -19.95411680	    -16.36086184	     -6.96537802	     25.02403936	     47.32860608	      0.00000000	      0.00000000	     26.06777204	    -24.45303383	     -5.26493216	    116.45339317	     48.42370079	      0.00000000	      0.00000000
     53.51900000	     -5.70505950	     -2.27449813	     -4.10784881	      0.95205360	      0.90888345	      0.44314388	     29.95610419	     -3.42196679	    -12.65860765	     20.63848050	     20.63848050	      1.19624805	     -0.52950865	      1.24651364	     -2.01988476	     -4.34703824	    -10.46514055	     14.46046856	     14.46046856	     22.12289736	     -1.99691078	     -4.38530597	    -11.13381211	      3.10465858	      2.67631689	    -20.84152250	    -16.05054722	     -6.92381485	     24.73083734	     47.32186868	      0.00000000	      0.00000000	     25.97975947	    -24.38570806	     -5.39916691	    117.38263386	     48.45822576	      0.00000000	      0.00000000
     53.53028571	     -5.87561371	     -2.47216252	     -3.90609196	      0.95277429	      0.90799236	      0.44635430	     30.06763398	     -3.11175063	    -12.35847212	     21.73603349	     21.73603349	      1.28127861	     -1.62431302	      0.19290795	     -1.54157824	     -4.93837175	     -9.93877490	     16.16632120	     16.16632120	     22.50815556	     -2.82880618	     -4.14882843	    -11.00260207	      3.18140323	      2.88581644	    -21.50766982	    -15.63517772	     -6.87189364	     24.60517847	     47.30378529	      0.00000000	      0.00000000	     25.80356328	    -23.97874480	     -5.55294242	    118.99952301	     48.51410069	      0.00000000	      0.00000000
     53.54157143	     -5.94788810	     -2.76152872	     -3.68496215	      0.95346560	      0.90775801	      0.44963734	     29.92734014	     -2.70905017	    -12.16504542	     22.61147082	     22.61147082	      1.46599800	     -2.58502346	     -0.72966040	     -1.06698959	     -5.64825068	     -9.41110039	     18.03069791	     18.03069791	     22.70526145	     -3.65163309	     -3.95232046	    -11.00328230	      3.40881266	      2.99819614	    -21.85203674	    -15.20104457	     -6.79288129	     24.54394962	     47.28344474	      0.00000000	      0.00000000	     25.27531059	    -23.69371792	     -5.82207814	    120.13513719	     48.56690729	      0.00000000	      0.00000000
     53.55285714	     -5.77168849	     -3.04487302	     -3.47666224	      0.95428082	      0.90838776	      0.45292427	     29.41555446	     -2.34893817	    -12.09942325	     23.34843371	     23.34843371	      1.96368574	     -3.10870435	     -1.23906163	     -0.84682201	     -6.33722902	     -8.97845370	     19.88638119	     19.88638119	     22.53615055	     -4.44682633	     -4.01219340	    -11.28740342	      3.65040876	      3.25290903	    -21.93441962	    -14.77875636	     -6.69913111	     24.47608272	     47.27148514	      0.00000000	      0.00000000	     24.58790546	    -23.38477072	     -5.93268339	    120.61874357	     48.58689837	      0.00000000	      0.00000000
     53.56414286	     -5.59433500	     -3.27149845	     -3.33226608	      0.95481907	      0.90939210	      0.45645313	     28.80173664	     -1.97094906	    -11.98508664	     23.82449547	     23.82449547	      2.52961438	     -3.48282958	     -1.58558724	     -0.34072883	     -7.01450141	     -8.49602799	     22.21962293	     22.21962293	     22.15797442	     -5.39075539	     -4.24305971	    -11.62572326	      3.66033063	      3.47830338	    -21.76135499	    -14.09968898	     -6.56770678	     24.49578698	     47.25608687	      0.00000000	      0.00000000	     23.76520876	    -22.91917164	     -5.94841404	    120.96024084	     48.59477120	      0.00000000	      0.00000000
     53.57542857	     -6.09664827	     -3.77305429	     -2.96334533	      0.95458172	      0.90954884	      0.45980820	     28.81344731	     -1.27227505	    -11.93244260	     23.99903935	     23.99903935	      2.75304768	     -4.67584258	     -2.08042662	      1.64064636	     -8.07509655	     -7.37982697	     25.67312450	     25.67312450	     21.13169662	     -7.33548168	     -5.52485546	    -11.27901491	      4.11553836	      2.74138379	    -20.79981448	    -14.07620593	     -5.69479124	     24.05771556	     47.16417248	      0.00000000	      0.00000000	     21.98808725	    -22.54328438	     -7.65273521	    122.71475463	     48.80163006	      0.00000000	      0.00000000
     53.58671429	     -6.14732558	     -4.19656550	     -2.69486920	      0.95457764	      0.91071678	      0.46326204	     28.20491161	     -0.71565457	    -12.23400203	     23.97465889	     23.97465889	      3.33379924	     -4.74153065	     -2.21552508	      3.09461047	     -9.04140065	     -6.60346865	     29.06191218	     29.06191218	     20.06142300	     -8.63614541	     -6.07326562	    -11.44713596	      4.37636399	      3.02504922	    -20.28297514	    -13.61630595	     -5.46145549	     24.12701859	     47.13941296	      0.00000000	      0.00000000	     21.07825595	    -21.92154155	     -7.48198626	    122.67047756	     48.79184082	      0.00000000	      0.00000000
     53.59800000	     -6.26775782	     -4.55593289	     -2.38570121	      0.95438968	      0.91191289	      0.46648669	     27.56729327	     -0.21121470	    -12.52611733	     23.69120372	     23.69120372	      3.85846187	     -4.81444420	     -2.23007973	      4.91327511	     -9.90480431	     -5.67146078	     32.81109093	     32.81109093	     18.50561276	    -10.19114571	     -6.76910185	    -11.47600385	      4.66799688	      3.22588749	    -19.56052723	    -13.14711095	     -5.19926217	     24.30366066	     47.10935159	      0.00000000	      0.00000000	     19.96272803	    -21.26089171	     -7.35704067	    122.45348365	     48.78037561	      0.00000000	      0.00000000
     53.60928571	     -6.44663864	     -4.92383167	     -2.06458141	      0.95401778	      0.91311448	      0.46962711	     26.91921787	      0.31922919	    -12.88916041	     23.22272893	     23.22272893	      4.31463624	     -4.79217419	     -2.19136333	      6.98209619	    -10.70315833	     -4.56036555	     36.71398093	     36.71398093	     16.40236416	    -11.98664782	     -7.53107936	    -11.44127879	      4.91009518	      3.33628805	    -18.69870417	    -12.77524762	     -4.89881726	     24.57475156	     47.07273183	      0.00000000	      0.00000000	     18.70399790	    -20.60489517	     -7.29262812	    122.01184814	     48.76824699	      0.00000000	      0.00000000
     53.62057143	     -6.55521798	     -5.28237463	     -1.73958728	      0.95355933	      0.91439354	      0.47263613	     26.15694327	      0.83922150	    -13.31433519	     22.65584062	     22.65584062	      4.74757338	     -4.63192874	     -2.19005741	      9.16058881	    -11.44522744	     -3.41996387	     40.78109041	     40.78109041	     13.92042199	    -13.77250182	     -8.05306955	    -11.51748185	      5.15140566	      3.44510371	    -17.66571513	    -12.45769019	     -4.62071412	     24.97990792	     47.03499048	      0.00000000	      0.00000000	     17.35706888	    -19.91759868	     -7.16185777	    121.34750700	     48.74472350	      0.00000000	      0.00000000
     53.63185714	     -6.67366331	     -5.61590355	     -1.43583721	      0.95300017	      0.91561387	      0.47551853	     25.38064824	      1.34023307	    -13.77795816	     22.00543824	     22.00543824	      5.09720926	     -4.37061834	     -2.21102593	     11.48402653	    -12.06810034	     -2.19558757	     44.89500067	     44.89500067	     11.17991799	    -15.48149800	     -8.22620325	    -11.57166916	      5.33696154	      3.51881964	    -16.53327146	    -12.18976754	     -4.36673686	     25.50246188	     46.99594621	      0.00000000	      0.00000000	     15.95246656	    -19.21855895	     -6.98548144	    120.44048051	     48.71157115	      0.00000000	      0.00000000
